# xmcd
#
# Track frame offsets:
#	150
#	21103
#	40130
#	60648
#	77841
#	99519
#	115437
#	138565
#	158113
#	175767
#	198901
#	215771
#
# Disc length: 3121 seconds
#
# Revision: 1
# Processed by: cddbd v1.5.2PL0 Copyright (c) Steve Scherf et al.
# Submitted via: audiograbber 1.83.01
#
DISCID=a40c2f0c
DTITLE=Nosie Katzmann - Greatest Hits 1
DYEAR=2008
DGENRE=Country
TTITLE0=Mr. Vain
TTITLE1=Right In The Night
TTITLE2=More And More
TTITLE3=Inside Out
TTITLE4=Love Is The Price
TTITLE5=Got To Get It
TTITLE6=Anything
TTITLE7=Find Me
TTITLE8=Break It Up
TTITLE9=Angel
TTITLE10=Love Is All Around
TTITLE11=Piece Of My Heart
EXTD=
EXTT0=
EXTT1=
EXTT2=
EXTT3=
EXTT4=
EXTT5=
EXTT6=
EXTT7=
EXTT8=
EXTT9=
EXTT10=
EXTT11=
PLAYORDER=
